<?xml version="1.0" encoding="utf-8"?>
<!-- Generator: Adobe Illustrator 16.0.0, SVG Export Plug-In . SVG Version: 6.00 Build 0)  -->
<!DOCTYPE svg PUBLIC "-//W3C//DTD SVG 1.1//EN" "http://www.w3.org/Graphics/SVG/1.1/DTD/svg11.dtd">
<svg version="1.1" id="Camada_1" xmlns="http://www.w3.org/2000/svg" xmlns:xlink="http://www.w3.org/1999/xlink" x="0px" y="0px"
	 width="277.249px" height="278.164px" viewBox="286.551 24.784 277.249 278.164"
	 enable-background="new 286.551 24.784 277.249 278.164" xml:space="preserve">
<title>mapa do brasil HCV</title>
<title>Layer 1</title>
<g>
	<path id="path1360" fill="none" stroke="#95A2A9" stroke-width="0.7" stroke-linecap="square" stroke-linejoin="round" d="
		M431.537,302.139l-3.479,0.459l0.656-2.69l1.509-0.984l-0.786-5.313l-1.642-0.328L426.025,290l-0.265-3.02l-2.688-1.115l-4.2-0.064
		l-4.069-2.361l-0.918-2.231l-3.741-2.229l-5.904-0.854l6.628-7.351l0.523-3.28l3.74-5.054l3.741-2.231l0.063-2.888l3.938-1.643
		l15.487-0.393l15.554,8.66l0.983,6.893l-3.021,7.811l-2.428,1.838l-2.166,3.806l-1.51,3.149l-7.415,4.396l-1.379,2.689
		l-1.051,4.396l-2.56,0.984L431.537,302.139z"/>
	<path id="path2120" fill="none" stroke="#95A2A9" stroke-width="0.7" stroke-linecap="square" stroke-linejoin="round" d="
		M457,270.047l-2.1,0.787l-0.984-6.893l-15.554-8.662l-13.39,0.133l-2.1,0.262l4.396-2.559l1.312-2.299l-0.065-2.689l9.909-0.131
		l3.609,1.902l3.479,0.524l2.625-1.248l1.971-2.032l7.479-0.265l6.037-1.114l-1.969,3.348l-0.328,15.354l-3.021,2.822L457,270.047z"
		/>
	<path id="path2880" fill="none" stroke="#95A2A9" stroke-width="0.7" stroke-linecap="square" stroke-linejoin="round" d="
		M464.023,245.307l1.312-0.787l1.838-1.115l-2.297-1.641l-3.938-0.525l-6.629-14.045l-13.585-6.233l-5.184-0.262l-11.091,9.844
		l0.131,12.862l0.263,1.378l3.872-0.197l-0.132,3.414l9.91-0.065l2.887,1.643l4.268,0.785l3.085-1.641l1.641-1.902l7.153-0.064
		L464.023,245.307z"/>
	<path id="path3640" fill="none" stroke="#95A2A9" stroke-width="0.7" stroke-linecap="square" stroke-linejoin="round" d="
		M465.203,241.829l2.034,1.312l4.067-3.808l0.918-3.347l3.938-1.51l5.973-0.918l1.509-0.656l0.525-1.903l2.953,0.065l3.084-4.332
		l0.328-1.771l-3.281-2.229l-4.528,1.969l-3.215,1.51l-2.689-0.328l-0.264-9.517l-4.266-9.845l-11.025-0.064l-6.562-4.396
		l-6.693-0.591l0.196,3.412l-1.641,0.132l-3.938,4.594l-0.522,6.692l-6.234,4.267l4.987,0.264l13.451,6.301l6.562,14.307
		L465.203,241.829z"/>
	<path id="path4400" fill="none" stroke="#95A2A9" stroke-width="0.7" stroke-linecap="square" stroke-linejoin="round" d="
		M487.385,230.936l2.756-4.397l0.265-1.574l-3.085-2.428l3.148-0.265l5.906-0.395l4.003-1.113l2.953-1.576l2.429-2.953l2.428-3.543
		l6.171,6.104l0.194,3.871l-1.246,1.707l-5.382,1.312l-0.919,2.428l-0.983,0.854l-14.503,0.131l-0.655,1.771L487.385,230.936z"/>
	<path id="path5160" fill="none" stroke="#95A2A9" stroke-width="0.7" stroke-linecap="square" stroke-linejoin="round" d="
		M514.358,218.532l0.591-0.855l1.246-0.459l1.901,0.132l0.724-1.771l0.263-2.562l1.378-1.771l2.494-3.019l0.919-4.528l-0.132-3.479
		l0.919-3.084l-0.524-2.297l-2.625-0.592l-3.479-1.182h-2.625l-0.265,8.008l-1.245,3.279l-1.839,3.873l-3.938,0.459l0.131,3.871
		L514.358,218.532z"/>
	<path id="path5920" fill="none" stroke="#95A2A9" stroke-width="0.7" stroke-miterlimit="10" d="M526.365,194.645l-2.165-0.196
		l-4.594-4.332l-1.116-3.347l5.578-5.186l-0.918-2.361l-7.09-6.037l-4.594,0.131l-5.972-3.873l-8.466-0.327l-0.787-3.871
		l-8.466,5.973l-5.578,0.328l0.394-28.088h-4.266l6.104-7.351h3.74l3.15,5.25l6.168-3.414l3.148-3.281l-3.279-4.2l16.604-0.065
		l3.74-3.413l1.706,0.263l3.544,4.791l7.875-6.431l7.416,4.791l0.195,6.3l3.676,0.263l-0.131,2.625l-4.004,0.458v4.463l3.217,2.953
		l2.887,0.918l-0.59,2.297l-2.103,1.246l-0.263,2.953l-1.443,1.248l-1.573,1.902l-2.953,1.574l-2.625,0.262l0.919,2.69
		l-0.197,15.554l-1.902,1.838l-0.723,2.229l-0.523,4.07l-1.051,2.36l-0.195,5.381L526.365,194.645z"/>
	<path id="path6682" fill="none" stroke="#95A2A9" stroke-width="0.7" stroke-linecap="square" stroke-linejoin="round" d="
		M477.935,168.329l4.068-0.065l0.396,3.217l5.645-0.328l8.465-6.038l0.788,3.872l8.466,0.328l5.974,3.871l4.594-0.131l7.087,6.036
		l0.919,2.363l-5.578,5.185l1.116,3.348l4.594,4.527l-2.625-0.394l-3.479-1.183h-2.69l-0.263,8.006l-1.247,3.281l-1.837,3.871
		l-3.938,0.461l0.132,3.938l-2.493,3.607l-2.43,2.953l-2.888,1.641l-4.003,1.115l-5.972,0.395l-3.15,0.264l1.838,1.51l-1.902-1.312
		l-4.527,1.97l-3.149,1.51l-2.689-0.328l-0.264-9.517l-4.266-9.844l-11.025-0.065l-6.562-4.463l-6.693-0.591l8.271-7.479
		l14.239-0.396l0.524-6.823l3.872-6.367l0.262-7.547h2.625L477.935,168.329z"/>
	<path id="path8207" fill="none" stroke="#95A2A9" stroke-width="0.7" stroke-miterlimit="10" d="M547.432,145.424l-3.544,3.084
		l-2.494-0.982l-3.347-2.69l-0.459-4.66l4.396-0.393l3.807,0.197l5.118,0.789L547.432,145.424z"/>
	<path id="path9725" fill="#FCD57D" stroke="#95A2A9" stroke-width="0.7" stroke-miterlimit="10" d="M545.989,140.043l4.985,0.656
		l3.021-0.592l0.328-2.953l3.019-0.853l2.165-4.397l0.328-1.969l-5.578,1.706l-5.25,0.525l-2.229-0.854l-1.707-1.509l-1.246-1.247
		l-1.51,0.131l-2.102,1.247l-1.771,0.853v6.038l3.807,0.197l-0.132,2.756L545.989,140.043z"/>
	<path id="path10485" fill="#FCD57D" stroke="#95A2A9" stroke-width="0.7" stroke-miterlimit="10" d="M559.769,129.872l1.903-1.182
		l1.443-3.806l0.064-6.497l-3.413,2.822l-5.841,0.328l-4.594,3.347l-3.215-7.744l-5.187,4.134l-3.413-3.543l-3.478,4.2l-4.659-4.922
		l-6.234,0.131l-0.132,5.053l-4.134,3.543l0.459,1.772l3.479,4.725l7.938-6.431l7.352,5.119l4.266-2.166l1.838,0.394l2.625,2.297
		l2.561,0.788l5.117-0.722L559.769,129.872z"/>
	<path id="path12003" fill="none" stroke="#95A2A9" stroke-width="0.7" stroke-miterlimit="10" d="M551.5,113.859l0.065-3.675
		l11.747,2.362l-0.065,5.972l-3.413,2.822l-5.84,0.328l-4.594,3.347l-3.218-7.744L541,121.406l-3.412-3.544l-2.888-6.365
		l2.165-2.822l4.2,2.625l6.432-1.903l0.394,4.331L551.5,113.859z"/>
	<path id="path12007" fill="none" stroke="#95A2A9" stroke-width="0.7" stroke-miterlimit="10" d="M563.247,112.547l0.196-3.544
		l-1.511-2.1l-0.919-5.644l-11.354-0.131l-5.446-3.806l-7.547,11.353l4.462,2.56l6.104-1.772l0.459,4.2l3.739,0.197l0.133-3.806
		L563.247,112.547z"/>
	<path id="path12009" fill="none" stroke="#95A2A9" stroke-width="0.7" stroke-miterlimit="10" d="M523.347,117.141l-4.985-32.091
		c11.613-0.853,19.816,5.578,26.053,12.207l-9.646,14.306l2.89,6.431l-3.281,3.741l-4.987-4.791L523.347,117.141z"/>
	<path id="path12011" fill="none" stroke="#95A2A9" stroke-width="0.7" stroke-miterlimit="10" d="M488.239,136.237l-3.74,0.197
		l0.131-9.385c2.494-8.728,8.597-14.109,16.866-16.997l4.331-0.131l0.328-12.731L514.159,84l4.2,1.05l4.985,31.828l-0.063,5.316
		l-4.331,3.281l0.522,2.166l-1.706-0.525l-3.738,3.478l-16.341,0.263l3.148,4.134l-3.281,3.15l-6.301,3.544L488.239,136.237z"/>
	<path id="path12013" fill="none" stroke="#95A2A9" stroke-width="0.7" stroke-miterlimit="10" d="M473.472,101.916l0.197,15.028
		l3.609,2.887l3.738,0.131l-0.063,3.609l-3.675,0.131l0.328,6.431l3.607,6.3l3.149-0.197l0.132-8.99
		c2.493-8.729,8.597-14.109,16.865-16.997l4.331-0.131l0.326-12.731l8.009-13.191l-11.878-3.675l-1.312,1.837l-2.363-0.591
		l-3.738-4.856l-2.43-0.591l-4.004-2.559l-1.9-1.116l-3.413-0.394l-5.315,17.325l-9.581,8.728L473.472,101.916z"/>
	<path id="path12773" fill="none" stroke="#95A2A9" stroke-width="0.7" stroke-linecap="square" stroke-linejoin="round" d="
		M469.338,101.981h-5.314l4.266-3.807l5.054,3.675l0.396,14.962l3.807,3.084l3.479-0.066v3.807l-3.74-0.066l0.263,6.169l3.479,6.628
		l3.607-0.262l-6.169,7.417l4.135-0.065l-0.063,8.989l-8.271,4.464l-7.284,0.065l-3.084-2.758l-2.166-0.064l-2.298,3.216
		l-4.525-2.166l-0.265-6.693l-3.544,3.543l-1.312-0.196v-6.627l2.953-12.272l8.071-11.025l4.462-12.009l2.625-5.25L469.338,101.981z
		"/>
	<path id="path12777" fill="none" stroke="#95A2A9" stroke-width="0.7" stroke-miterlimit="10" d="M475.114,177.713l0.132-5.055
		l-8.466-1.377l-0.197,6.691L475.114,177.713z"/>
	<path id="path12785" fill="none" stroke="#95A2A9" stroke-width="0.7" stroke-miterlimit="10" d="M450.111,155.793l-0.265-3.938
		l1.312,0.196l3.544-3.545l0.263,6.695l4.594,2.166l2.299-3.216l2.165,0.064l3.085,2.756l7.219-0.065l8.269-4.462l-0.263,17.916
		l-0.263-2.1L478,168.329v4.396l-2.625-0.064l-0.131,3.74l0.063-3.74l-8.466-1.377l-0.196,6.76l8.467-0.197l-0.065,2.494
		l-3.872,6.365l-0.522,6.824l-14.241,0.328l-8.271,7.547l-13.912-10.764l-0.064-11.746l14.766-19.754L450.111,155.793z"/>
	<path id="path12794" fill="none" stroke="#95A2A9" stroke-width="0.7" stroke-miterlimit="10" d="M448.273,201.141l-0.065,3.676
		l-1.641,0.132l-3.938,4.659l-0.522,6.691l-6.171,4.268l-11.482,9.908l-5.972,1.838l0.326-8.53l-2.689-0.064l-0.459-2.102
		l-2.756-0.064l0.131-1.379h-11.156l-1.115-2.166l1.115-4.725l-0.197-18.179l2.035-5.055l2.887-4.066l1.707-1.838l7.48,0.195
		l4.854,3.479h5.384l2.36-2.297l1.115-0.787v5.447l4.922,0.064L448.273,201.141z"/>
	<path id="path12803" fill="none" stroke="#95A2A9" stroke-width="0.7" stroke-miterlimit="10" d="M381.859,162.62l-0.853-2.759
		l6.891-12.797l-3.478-0.196l-2.494-3.478l3.347-0.133l-0.064-2.689h-10.764l-0.195-14.961l20.803,0.131l3.872-11.353l5.187,12.009
		l48.628,6.562l-2.953,12.272v6.627h0.063l0.265,3.873l-1.052,3.019L434.294,178.5l0.065,11.746l0,0l-4.856-0.131v-5.447
		l-1.115,0.787l-2.36,2.297h-5.382l-4.987-3.346l-7.481-0.197l-1.706,1.838l-2.888,4.068l-0.853,2.033l-1.512-1.312l-1.51-5.842
		l-2.821-2.297l-0.854-1.642l-0.328-3.217l-11.287,0.066l-0.854-5.187l-2.166-3.479l1.643-1.378l1.378-0.264l-0.263-4.199
		L381.859,162.62z"/>
	<path id="path13568" fill="none" stroke="#95A2A9" stroke-width="0.7" stroke-linecap="square" stroke-linejoin="round" d="
		M413.688,46.2l5.515,0.262l3.084-0.853l0.197,6.169l4.922,0.262l14.175,19.491l3.607,0.131l0.197-5.25l8.99-8.466l1.05,5.185
		l3.675,0.065l0.919,1.444l8.14,0.525l-3.021,4.003l-0.195,3.938l1.969,1.378l2.101-1.444l1.378-4.528l9.712-0.066l2.822,3.938
		l-5.381,17.325l-9.582,8.793l0.066,0.066l-4.069,3.609h5.313L467.763,105l-2.625,5.25l-4.463,12.009l-8.269,10.959l-48.497-6.497
		l-5.118-12.009l-3.15-4.134l16.865-32.944l-15.159-5.972l-4.725-10.435l2.1-7.612l5.974-0.394l2.101-1.903l10.565-0.525
		L413.688,46.2z"/>
	<path id="path13575" fill="none" stroke="#95A2A9" stroke-width="0.7" stroke-linecap="square" stroke-linejoin="round" d="
		M422.35,45.741l0.197,6.168l4.922,0.263l14.175,19.491l3.609,0.131l0.197-5.25l8.99-8.466l1.901-3.281l0.459-2.625l-2.493-3.806
		l-4.396-0.394l-4.134-15.159l-1.575-0.197l-7.416,14.634L422.35,45.741z"/>
	<path id="path14335" fill="none" stroke="#95A2A9" stroke-width="0.7" stroke-linecap="square" stroke-linejoin="round" d="
		M384.091,25.134h-2.625l-4.135,6.169l-3.938,0.525L371.95,33.6l-4.791,0.262l-1.052,2.56l-1.706-1.181h-4.067l-2.231-2.166
		l-4.067-1.312l-4.003-1.116l5.25,5.053l0.853,9.909l5.053-0.065l3.544,3.084l0.197,3.413l2.953,3.544l-0.197,1.903l-3.084,4.397
		l3.808,4.069l0.131,3.741l3.675,2.756l1.969-0.459l2.231-5.775l4.526-0.263l3.741-5.315l8.072,0.394l2.229-7.678l-5.576-0.394
		l-0.656-2.428l-3.872-3.216l1.575-17.193l-1.575-0.525l0.131-3.281L384.091,25.134z"/>
	<path id="path14337" fill="none" stroke="#95A2A9" stroke-width="0.7" stroke-linecap="square" stroke-linejoin="round" d="
		M369.325,156.646l11.747,3.414L387.963,147l-3.479-0.197l-2.492-3.479l3.347-0.131l-0.065-2.691l-10.763,0.264l-0.197-14.961
		l-2.888-0.328l-5.119-6.038h-4.594l-19.031,12.6l2.888,0.131l2.231,0.853l1.05,1.509l-1.05,3.741l0.197,4.396l2.953,4.268
		l2.951,2.756l6.433,3.479L369.325,156.646z"/>
	<path id="path14339" fill="none" stroke="#95A2A9" stroke-width="0.7" stroke-linecap="square" stroke-linejoin="round" d="
		M360.925,48.891l0.263-3.347l3.544,3.084l0.197,3.479l2.953,3.609l-0.197,1.903l-3.019,4.397l3.806,4.069l0.131,3.741l3.609,2.756
		l1.969-0.459l2.231-5.841l4.594-0.263l3.741-5.315l8.07,0.394l0.592-2.034l-0.525,1.969l4.727,10.435l15.157,5.972l-16.865,32.944
		l3.086,4.069l-3.808,11.287l-20.803-0.131v0.131l-2.822-0.328l-5.119-6.037h-4.594l-19.163,12.534l-3.609,1.969l-49.479-20.344
		l0.787-1.378l0.459-8.794l2.229-0.065l0.459-4.856l3.479-0.065l1.903-3.019l4.067,0.328l3.084-3.806l7.022,0.263l4.003-11.747
		l-1.247-7.219l-0.131-7.416l-3.021-3.544l0.197-4.2l5.84,0.131l0.066-2.428l-3.609-0.131l0.984-5.841l10.303-0.262l0.197-1.312
		l1.247-0.066l1.05,1.641l1.115-0.262l3.347-2.822l0.328,5.381l2.559,3.544l11.878-0.328l7.94-3.281l0.459-3.084h4.336
		L360.925,48.891L360.925,48.891z"/>
	<path id="path14348" fill="none" stroke="#95A2A9" stroke-width="0.7" stroke-linecap="square" stroke-linejoin="round" d="
		M288.672,113.072l1.181,0.394l48.169,20.146l-2.229,1.838l-0.525,2.362l-2.756,0.197v2.101l-2.034,0.722l-0.523-1.181l-0.656,1.05
		l0.063,2.756l-18.638,0.131l-0.131-10.63l-3.479,1.05l-1.704,2.166l-6.038,0.131l-0.264-3.413l-3.872-0.065l-5.576-6.169v-3.216
		l-2.758-1.969l0.133-8.531L288.672,113.072z"/>
</g>
</svg>
